# xmcd CD database file
#
# Track frame offsets:
#	150
#	16953
#	45688
#	67339
#	88984
#
# Disc length: 1516 seconds
#
# Revision: 1
# Processed by: cddbd v1.5.2PL0 Copyright (c) Steve Scherf et al.
# Submitted via: CDex 1.51
#
DISCID=4305ea05
DTITLE=Running Hybrids - Live at the Mumyhua Festival 2006
DYEAR=2006
DGENRE=Jazz
TTITLE0=Never Ending Love
TTITLE1=Love Letters
TTITLE2=Wonderland
TTITLE3=Moon and Sand
TTITLE4=On Sunday
EXTD=YEAR: 2006
EXTT0=
EXTT1=
EXTT2=
EXTT3=
EXTT4=
PLAYORDER=
